<?xml version="1.0" encoding="UTF-8" standalone="no"?>
<!-- Created with Inkscape (http://www.inkscape.org/) -->

<svg
   xmlns:dc="http://purl.org/dc/elements/1.1/"
   xmlns:cc="http://creativecommons.org/ns#"
   xmlns:rdf="http://www.w3.org/1999/02/22-rdf-syntax-ns#"
   xmlns:svg="http://www.w3.org/2000/svg"
   xmlns="http://www.w3.org/2000/svg"
   xmlns:inkscape="http://www.inkscape.org/namespaces/inkscape"
   version="1.1"
   width="57.5"
   height="57.5"
   id="svg2"
   xml:space="preserve"><metadata
     id="metadata8"><rdf:RDF><cc:Work
         rdf:about=""><dc:format>image/svg+xml</dc:format><dc:type
           rdf:resource="http://purl.org/dc/dcmitype/StillImage" /></cc:Work></rdf:RDF></metadata><defs
     id="defs6"><clipPath
       id="clipPath16"><path
         d="M 0,46 46,46 46,0 0,0 0,46 z"
         inkscape:connector-curvature="0"
         id="path18" /></clipPath></defs><g
     transform="matrix(1.25,0,0,-1.25,0,57.5)"
     id="g10"><g
       id="g12"><g
         clip-path="url(#clipPath16)"
         id="g14"><g
           transform="translate(29.1094,32.6318)"
           id="g20"><path
             d="m 0,0 -3.164,0 c -0.627,0 -1.26,-0.654 -1.26,-1.141 l 0,-3.254 4.418,0 c -0.178,-2.496 -0.541,-4.777 -0.541,-4.777 l -3.898,0 0,-14.145 -5.81,0 0,14.145 -2.828,0 0,4.76 2.828,0 0,3.891 c 0,0.713 -0.143,5.477 5.952,5.477 L 0,4.956 0,0 z m -6.541,13.368 c -12.453,0 -22.548,-10.096 -22.548,-22.549 0,-12.453 10.095,-22.55 22.548,-22.55 12.455,0 22.551,10.097 22.551,22.55 0,12.453 -10.096,22.549 -22.551,22.549"
             inkscape:connector-curvature="0"
             id="path22"
             style="fill:#6B4724;fill-opacity:1;fill-rule:nonzero;stroke:none" /></g></g></g></g></svg>