<?xml version="1.0" encoding="UTF-8" standalone="no"?>
<!-- Created with Inkscape (http://www.inkscape.org/) -->

<svg
   xmlns:dc="http://purl.org/dc/elements/1.1/"
   xmlns:cc="http://creativecommons.org/ns#"
   xmlns:rdf="http://www.w3.org/1999/02/22-rdf-syntax-ns#"
   xmlns:svg="http://www.w3.org/2000/svg"
   xmlns="http://www.w3.org/2000/svg"
   xmlns:inkscape="http://www.inkscape.org/namespaces/inkscape"
   version="1.1"
   width="57.5"
   height="57.5"
   id="svg2"
   xml:space="preserve"><metadata
     id="metadata8"><rdf:RDF><cc:Work
         rdf:about=""><dc:format>image/svg+xml</dc:format><dc:type
           rdf:resource="http://purl.org/dc/dcmitype/StillImage" /></cc:Work></rdf:RDF></metadata><defs
     id="defs6"><clipPath
       id="clipPath16"><path
         d="M 0,46 46,46 46,0 0,0 0,46 z"
         inkscape:connector-curvature="0"
         id="path18" /></clipPath></defs><g
     transform="matrix(1.25,0,0,-1.25,0,57.5)"
     id="g10"><g
       id="g12"><g
         clip-path="url(#clipPath16)"
         id="g14"><g
           transform="translate(32.2207,22.9409)"
           id="g20"><path
             d="m 0,0 c -2.078,-8.423 -16.015,-11.998 -22.426,-3.25 2.455,-2.346 6.731,-2.552 9.444,0.25 -1.591,-0.23 -2.747,1.331 -0.794,2.173 -1.757,-0.191 -2.733,0.743 -3.135,1.538 0.412,0.431 0.866,0.631 1.745,0.689 -1.923,0.455 -2.634,1.396 -2.851,2.539 0.534,0.127 1.202,0.237 1.567,0.188 -1.686,0.882 -2.271,2.208 -2.179,3.205 3.011,-1.119 4.929,-2.017 6.533,-2.878 0.572,-0.305 1.209,-0.854 1.929,-1.552 0.917,2.423 2.048,4.92 3.986,6.159 -0.032,-0.281 -0.182,-0.542 -0.381,-0.757 0.549,0.5 1.263,0.844 1.988,0.943 -0.082,-0.545 -0.867,-0.852 -1.34,-1.031 0.357,0.112 2.266,0.963 2.473,0.478 C -3.195,8.143 -4.757,7.888 -5.022,7.793 -5.221,7.727 -5.418,7.654 -5.615,7.575 -3.197,7.816 -0.889,5.82 -0.217,3.344 -0.168,3.165 -0.119,2.968 -0.078,2.76 0.807,2.43 2.408,2.777 2.926,3.093 2.553,2.21 1.582,1.559 0.151,1.441 0.84,1.155 2.141,0.997 3.037,1.149 2.469,0.539 1.555,-0.012 0,0 m -9.667,23.059 c -12.456,0 -22.554,-10.098 -22.554,-22.553 0,-12.456 10.098,-22.552 22.554,-22.552 12.456,0 22.552,10.096 22.552,22.552 0,12.455 -10.096,22.553 -22.552,22.553"
             inkscape:connector-curvature="0"
             id="path22"
             style="fill:#6B4724;fill-opacity:1;fill-rule:nonzero;stroke:none" /></g></g></g></g></svg>